HIERARCHY
ROOT joint_Root
{
	OFFSET 0.0 0.0 0.0
	CHANNELS 6 Xposition Yposition Zposition Zrotation Xrotation Yrotation 
	JOINT Hips
	{
		OFFSET 4.5925 91.4895 -427.239
		CHANNELS 6 Xposition Yposition Zposition Zrotation Xrotation Yrotation 
		JOINT Spine
		{
			OFFSET 15.7357 0.0 0.0
			CHANNELS 6 Xposition Yposition Zposition Zrotation Xrotation Yrotation 
			JOINT Chest
			{
				OFFSET 8.98455 -0.406207 0.0
				CHANNELS 6 Xposition Yposition Zposition Zrotation Xrotation Yrotation 
				JOINT Neck
				{
					OFFSET 16.3773 0.0 0.0
					CHANNELS 6 Xposition Yposition Zposition Zrotation Xrotation Yrotation 
					JOINT Head
					{
						OFFSET 6.45672 0.0 0.0
						CHANNELS 6 Xposition Yposition Zposition Zrotation Xrotation Yrotation 
						End Site
						{
							OFFSET 0.0 0.0 0.0
						}
					}
				}
				JOINT Shoulder_L
				{
					OFFSET 12.9942 -0.242716 4.98039
					CHANNELS 6 Xposition Yposition Zposition Zrotation Xrotation Yrotation 
					JOINT UpperArm_L
					{
						OFFSET 5.34809 0.0 0.0
						CHANNELS 6 Xposition Yposition Zposition Zrotation Xrotation Yrotation 
						JOINT LowerArm_L
						{
							OFFSET 24.3286 1.87007e-05 0.0
							CHANNELS 6 Xposition Yposition Zposition Zrotation Xrotation Yrotation 
							JOINT Hand_L
							{
								OFFSET 22.2916 0.0 0.0
								CHANNELS 6 Xposition Yposition Zposition Zrotation Xrotation Yrotation 
								End Site
								{
									OFFSET 0.0 0.0 0.0
								}
							}
						}
					}
				}
				JOINT Shoulder_R
				{
					OFFSET 12.9945 -0.242716 -4.98039
					CHANNELS 6 Xposition Yposition Zposition Zrotation Xrotation Yrotation 
					JOINT UpperArm_R
					{
						OFFSET -5.34813 0.0 0.0
						CHANNELS 6 Xposition Yposition Zposition Zrotation Xrotation Yrotation 
						JOINT LowerArm_R
						{
							OFFSET -24.3289 0.000322201 0.0
							CHANNELS 6 Xposition Yposition Zposition Zrotation Xrotation Yrotation 
							JOINT Hand_R
							{
								OFFSET -22.2915 -0.000108084 0.0
								CHANNELS 6 Xposition Yposition Zposition Zrotation Xrotation Yrotation 
								End Site
								{
									OFFSET 0.0 0.0 0.0
								}
							}
						}
					}
				}
			}
		}
		JOINT UpperLeg_L
		{
			OFFSET -2.19248 -6.46944 0.0
			CHANNELS 6 Xposition Yposition Zposition Zrotation Xrotation Yrotation 
			JOINT LowerLeg_L
			{
				OFFSET 39.0811 0.0 -1.23785e-05
				CHANNELS 6 Xposition Yposition Zposition Zrotation Xrotation Yrotation 
				JOINT Foot_L
				{
					OFFSET 40.9854 0.0 -1.26872e-05
					CHANNELS 6 Xposition Yposition Zposition Zrotation Xrotation Yrotation 
					JOINT Toes_L
					{
						OFFSET 11.7543 0.0 0.0
						CHANNELS 6 Xposition Yposition Zposition Zrotation Xrotation Yrotation 
						End Site
						{
							OFFSET 0.0 0.0 0.0
						}
					}
				}
			}
		}
		JOINT UpperLeg_R
		{
			OFFSET -2.19251 6.46944 0.0
			CHANNELS 6 Xposition Yposition Zposition Zrotation Xrotation Yrotation 
			JOINT LowerLeg_R
			{
				OFFSET -39.0811 -0.00228153 -0.0401928
				CHANNELS 6 Xposition Yposition Zposition Zrotation Xrotation Yrotation 
				JOINT Foot_R
				{
					OFFSET -40.9854 0.0 0.0
					CHANNELS 6 Xposition Yposition Zposition Zrotation Xrotation Yrotation 
					JOINT Toes_R
					{
						OFFSET -11.7543 0.0 0.0
						CHANNELS 6 Xposition Yposition Zposition Zrotation Xrotation Yrotation 
						End Site
						{
							OFFSET 0.0 0.0 0.0
						}
					}
				}
			}
		}
	}
}
MOTION
Frames:	8
Frame Time:	0.0333333
0.000000 0.000000 0.000000 0.000000 0.000000 -0.000000 -2.344240 90.964300 -8.005610 88.323200 -1.539900 11.350300 15.735700 0.000005 -0.000001 88.508700 75.480600 -88.993200 8.984550 -0.406207 -0.000000 21.261200 -0.793490 -0.823749 16.377300 -0.000001 -0.000001 16.806000 -3.190670 2.022480 6.456720 -0.000001 -0.000000 -12.583200 -3.691750 2.596890 12.994200 -0.242716 4.980390 -88.701400 -4.115500 -72.469800 5.348090 -0.000007 -0.000001 -73.858900 -16.120100 -85.906500 24.328600 0.000019 0.000005 39.625100 1.748790 -87.889300 22.291600 -0.000001 0.000005 16.516700 5.075670 5.665710 12.994500 -0.242716 -4.980390 90.535600 -2.375580 -77.291300 -5.348130 -0.000001 -0.000004 -68.112200 -19.971000 -80.941600 -24.328900 0.000322 -0.000009 19.856500 -0.345954 -90.958600 -22.291500 -0.000108 -0.000004 24.091400 5.190910 2.946030 -2.192480 -6.469440 -0.000000 -173.028000 -13.913900 -5.731790 39.081100 -0.000007 -0.000012 -0.068350 0.109737 31.917100 40.985400 -0.000006 -0.000013 0.658434 8.469720 -64.543200 11.754300 -0.000000 0.000003 -0.000198 -0.001838 -16.646900 -2.192510 6.469440 -0.000001 177.149000 25.269000 176.450000 -39.081100 -0.002282 -0.040193 -0.096537 0.170835 30.302700 -40.985400 0.000008 0.000006 6.308940 16.996600 -65.864400 -11.754300 -0.000006 -0.000006 -0.002221 -0.031450 -17.852000
0.000000 0.000000 0.000000 0.000000 0.000000 -0.000000 -2.350860 90.969900 -7.949130 88.350500 -1.515450 11.246300 15.735700 0.000005 -0.000001 88.477500 75.509800 -88.980100 8.984550 -0.406207 -0.000000 21.202100 -0.809354 -0.857625 16.377300 -0.000001 -0.000001 16.677100 -3.175760 2.008230 6.456720 -0.000001 -0.000000 -12.646400 -3.641230 2.547980 12.994200 -0.242716 4.980390 -88.698000 -4.125220 -72.466500 5.348090 -0.000007 -0.000001 -73.954200 -16.105700 -85.872800 24.328600 0.000019 0.000005 39.665500 1.771520 -87.864900 22.291600 -0.000001 0.000005 16.594600 5.074080 5.701330 12.994500 -0.242716 -4.980390 90.541800 -2.407430 -77.311800 -5.348130 -0.000001 -0.000004 -68.197800 -19.955300 -80.954700 -24.328900 0.000322 -0.000009 19.836700 -0.356461 -90.988800 -22.291500 -0.000108 -0.000004 24.038500 5.190160 2.964690 -2.192480 -6.469440 -0.000000 -173.076000 -13.886300 -5.791740 39.081100 -0.000007 -0.000012 -0.069671 0.112029 31.877800 40.985400 -0.000006 -0.000013 0.640830 8.449020 -64.550900 11.754300 -0.000000 0.000003 -0.000199 -0.001844 -16.647100 -2.192510 6.469440 -0.000001 177.149000 25.289100 176.381000 -39.081100 -0.002282 -0.040193 -0.098466 0.174181 30.296100 -40.985400 0.000008 0.000006 6.303160 16.994600 -65.897900 -11.754300 -0.000006 -0.000006 -0.002214 -0.031365 -17.848500
0.000000 0.000000 0.000000 0.000000 0.000000 -0.000000 -2.361160 90.980800 -7.889910 88.357800 -1.467470 11.185800 15.735700 0.000005 -0.000001 88.448900 75.524700 -88.959300 8.984550 -0.406207 -0.000000 21.171900 -0.823515 -0.870829 16.377300 -0.000001 -0.000001 16.541800 -3.152080 1.997980 6.456720 -0.000001 -0.000000 -12.687300 -3.586810 2.483380 12.994200 -0.242716 4.980390 -88.681900 -4.180420 -72.482000 5.348090 -0.000007 -0.000001 -74.091100 -16.092800 -85.861800 24.328600 0.000019 0.000005 39.715700 1.819470 -87.811100 22.291600 -0.000001 0.000005 16.554300 5.073450 5.715470 12.994500 -0.242716 -4.980390 90.552700 -2.457150 -77.319700 -5.348130 -0.000001 -0.000004 -68.313900 -19.944900 -81.002400 -24.328900 0.000322 -0.000009 19.845600 -0.352861 -90.978300 -22.291500 -0.000108 -0.000004 24.050700 5.191140 2.940460 -2.192480 -6.469440 -0.000000 -173.100000 -13.816000 -5.787660 39.081100 -0.000007 -0.000012 -0.070390 0.113423 31.823800 40.985400 -0.000006 -0.000013 0.618553 8.411920 -64.565900 11.754300 -0.000000 0.000003 -0.000189 -0.001765 -16.644200 -2.192510 6.469440 -0.000001 177.150000 25.279200 176.393000 -39.081100 -0.002282 -0.040193 -0.100384 0.177813 30.247300 -40.985400 0.000008 0.000006 6.284160 16.972100 -65.919600 -11.754300 -0.000006 -0.000006 -0.002227 -0.031520 -17.854800
0.000000 0.000000 0.000000 0.000000 0.000000 -0.000000 -2.373390 90.980500 -7.822690 88.367600 -1.430830 11.117300 15.735700 0.000005 -0.000001 88.455500 75.537900 -88.963800 8.984550 -0.406207 -0.000000 21.145600 -0.819240 -0.867474 16.377300 -0.000001 -0.000001 16.377500 -3.122060 1.990950 6.456720 -0.000001 -0.000000 -12.786500 -3.538950 2.394160 12.994200 -0.242716 4.980390 -88.687400 -4.163210 -72.482800 5.348090 -0.000007 -0.000001 -74.114500 -16.080500 -85.939600 24.328600 0.000019 0.000005 39.791300 1.925990 -87.689300 22.291600 -0.000001 0.000005 16.617700 5.070610 5.779280 12.994500 -0.242716 -4.980390 90.567600 -2.512970 -77.266900 -5.348130 -0.000001 -0.000004 -68.413600 -19.914400 -81.105300 -24.328900 0.000322 -0.000009 19.874100 -0.332350 -90.920100 -22.291500 -0.000108 -0.000004 24.067500 5.192400 2.909120 -2.192480 -6.469440 -0.000000 -173.119000 -13.788200 -5.818760 39.081100 -0.000007 -0.000012 -0.069959 0.112719 31.826000 40.985400 -0.000006 -0.000013 0.610732 8.417510 -64.608400 11.754300 -0.000000 0.000003 -0.000188 -0.001761 -16.644100 -2.192510 6.469440 -0.000001 177.160000 25.291900 176.361000 -39.081100 -0.002282 -0.040193 -0.100188 0.177389 30.259600 -40.985400 0.000008 0.000006 6.281310 16.937300 -65.970900 -11.754300 -0.000006 -0.000006 -0.002247 -0.031768 -17.864900
0.000000 0.000000 0.000000 0.000000 0.000000 -0.000000 -2.377220 90.986900 -7.751540 88.374600 -1.371150 11.041300 15.735700 0.000005 -0.000001 88.451000 75.565100 -88.958600 8.984550 -0.406207 -0.000000 21.091100 -0.819784 -0.866347 16.377300 -0.000001 -0.000001 16.207000 -3.148530 1.969970 6.456720 -0.000001 -0.000000 -12.738700 -3.517470 2.384340 12.994200 -0.242716 4.980390 -88.678900 -4.198770 -72.516700 5.348090 -0.000007 -0.000001 -74.105500 -16.074500 -85.938100 24.328600 0.000019 0.000005 39.811700 1.943440 -87.670100 22.291600 -0.000001 0.000005 16.602900 5.071900 5.750170 12.994500 -0.242716 -4.980390 90.571100 -2.525680 -77.254400 -5.348130 -0.000001 -0.000004 -68.440900 -19.949000 -81.153800 -24.328900 0.000322 -0.000009 19.892400 -0.309976 -90.857400 -22.291500 -0.000108 -0.000004 24.039500 5.191230 2.938080 -2.192480 -6.469440 -0.000000 -173.134000 -13.772800 -5.840820 39.081100 -0.000007 -0.000012 -0.072279 0.116600 31.794500 40.985400 -0.000006 -0.000013 0.606937 8.449300 -64.634500 11.754300 -0.000000 0.000003 -0.000197 -0.001824 -16.646400 -2.192510 6.469440 -0.000001 177.158000 25.322300 176.349000 -39.081100 -0.002282 -0.040193 -0.102295 0.181178 30.235200 -40.985400 0.000008 0.000006 6.266690 16.920200 -66.007000 -11.754300 -0.000006 -0.000006 -0.002196 -0.031146 -17.839600
0.000000 0.000000 0.000000 0.000000 0.000000 -0.000000 -2.389870 90.991200 -7.668920 88.353500 -1.309380 11.011300 15.735700 0.000005 -0.000001 88.414800 75.592600 -88.916600 8.984550 -0.406207 -0.000000 21.035800 -0.835288 -0.852180 16.377300 -0.000001 -0.000001 16.094800 -3.166880 1.982660 6.456720 -0.000001 -0.000000 -12.549600 -3.507570 2.357040 12.994200 -0.242716 4.980390 -88.677600 -4.196630 -72.492300 5.348090 -0.000007 -0.000001 -73.996900 -16.056900 -85.947700 24.328600 0.000019 0.000005 39.790400 1.941330 -87.670900 22.291600 -0.000001 0.000005 16.660600 5.071620 5.756630 12.994500 -0.242716 -4.980390 90.576000 -2.555720 -77.294200 -5.348130 -0.000001 -0.000004 -68.449100 -19.986200 -81.113500 -24.328900 0.000322 -0.000009 19.968200 -0.296388 -90.816400 -22.291500 -0.000108 -0.000004 24.036200 5.189600 2.978650 -2.192480 -6.469440 -0.000000 -173.112000 -13.694700 -5.814650 39.081100 -0.000007 -0.000012 -0.070952 0.114484 31.789000 40.985400 -0.000006 -0.000013 0.595122 8.471000 -64.690100 11.754300 -0.000000 0.000003 -0.000207 -0.001908 -16.649500 -2.192510 6.469440 -0.000001 177.158000 25.362900 176.414000 -39.081100 -0.002282 -0.040193 -0.102991 0.182612 30.202300 -40.985400 0.000008 0.000006 6.250480 16.890100 -66.058700 -11.754300 -0.000006 -0.000006 -0.002151 -0.030585 -17.816800
0.000000 0.000000 0.000000 0.000000 0.000000 -0.000000 -2.392070 90.989100 -7.581040 88.380200 -1.273120 10.980600 15.735700 0.000005 -0.000001 88.442800 75.613000 -88.953400 8.984550 -0.406207 -0.000000 20.995300 -0.821370 -0.872855 16.377300 -0.000001 -0.000001 16.067600 -3.192250 1.979080 6.456720 -0.000001 -0.000000 -12.348900 -3.548210 2.393510 12.994200 -0.242716 4.980390 -88.669400 -4.230490 -72.522700 5.348090 -0.000007 -0.000001 -74.016200 -16.040600 -85.972400 24.328600 0.000019 0.000005 39.715700 1.871560 -87.748500 22.291600 -0.000001 0.000005 16.530300 5.077330 5.628540 12.994500 -0.242716 -4.980390 90.581200 -2.575130 -77.276900 -5.348130 -0.000001 -0.000004 -68.457300 -20.004700 -81.075400 -24.328900 0.000322 -0.000009 19.924700 -0.285246 -90.787700 -22.291500 -0.000108 -0.000004 24.047000 5.189900 2.971260 -2.192480 -6.469440 -0.000000 -173.149000 -13.638400 -5.791660 39.081100 -0.000007 -0.000012 -0.070932 0.114429 31.794100 40.985400 -0.000006 -0.000013 0.582494 8.424240 -64.752400 11.754300 -0.000000 0.000003 -0.000183 -0.001718 -16.642500 -2.192510 6.469440 -0.000001 177.115000 25.382500 176.439000 -39.081100 -0.002282 -0.040193 -0.103719 0.183628 30.234300 -40.985400 0.000008 0.000006 6.244930 16.860600 -66.139400 -11.754300 -0.000006 -0.000006 -0.002275 -0.032111 -17.878800
0.000000 0.000000 0.000000 0.000000 0.000000 -0.000000 -2.396070 90.988100 -7.500820 88.369600 -1.239060 10.983600 15.735700 0.000005 -0.000001 88.430600 75.622000 -88.940300 8.984550 -0.406207 -0.000000 20.977200 -0.826695 -0.870034 16.377300 -0.000001 -0.000001 16.111300 -3.206100 2.014000 6.456720 -0.000001 -0.000000 -12.125500 -3.531610 2.411570 12.994200 -0.242716 4.980390 -88.645900 -4.308550 -72.534800 5.348090 -0.000007 -0.000001 -74.105300 -16.051100 -86.003600 24.328600 0.000019 0.000005 39.661000 1.783090 -87.850600 22.291600 -0.000001 0.000005 16.544100 5.077400 5.626640 12.994500 -0.242716 -4.980390 90.594600 -2.639800 -77.300400 -5.348130 -0.000001 -0.000004 -68.491200 -20.006000 -81.005800 -24.328900 0.000322 -0.000009 19.937000 -0.285332 -90.787400 -22.291500 -0.000108 -0.000004 24.037300 5.190090 2.966560 -2.192480 -6.469440 -0.000000 -173.118000 -13.628600 -5.742090 39.081100 -0.000007 -0.000012 -0.075237 0.121309 31.808000 40.985400 -0.000006 -0.000013 0.579162 8.454980 -64.811400 11.754300 -0.000000 0.000003 -0.000198 -0.001832 -16.646700 -2.192510 6.469440 -0.000001 177.106000 25.333400 176.502000 -39.081100 -0.002282 -0.040193 -0.104268 0.184562 30.235200 -40.985400 0.000008 0.000006 6.219260 16.807700 -66.189600 -11.754300 -0.000006 -0.000006 -0.002139 -0.030440 -17.810900
